HIERARCHY
ROOT Hips
{
	OFFSET 0.000000 0.000000 0.000000 
	CHANNELS 6 Xposition Yposition Zposition Zrotation Yrotation Xrotation
	JOINT LHipJoint
	{
		OFFSET 0.000000 0.000000 0.000000 
		CHANNELS 3 Zrotation Yrotation Xrotation
		JOINT LeftUpLeg
		{
			OFFSET 0.049174 -0.055197 0.022926 
			CHANNELS 3 Zrotation Yrotation Xrotation
			JOINT LeftLeg
			{
				OFFSET 0.075187 -0.206577 0.000000 
				CHANNELS 3 Zrotation Yrotation Xrotation
				JOINT LeftFoot
				{
					OFFSET 0.083177 -0.228528 0.000000 
					CHANNELS 3 Zrotation Yrotation Xrotation
					JOINT LeftToeBase
					{
						OFFSET 0.006522 -0.017919 0.066408 
						CHANNELS 3 Zrotation Yrotation Xrotation
						End Site
						{
							OFFSET 0.000000 -0.000000 0.034549 
						}
					}
				}
			}
		}
	}
	JOINT RHipJoint
	{
		OFFSET 0.000000 0.000000 0.000000 
		CHANNELS 3 Zrotation Yrotation Xrotation
		JOINT RightUpLeg
		{
			OFFSET -0.046656 -0.055197 0.022926 
			CHANNELS 3 Zrotation Yrotation Xrotation
			JOINT RightLeg
			{
				OFFSET -0.076145 -0.209206 0.000000 
				CHANNELS 3 Zrotation Yrotation Xrotation
				JOINT RightFoot
				{
					OFFSET -0.082175 -0.225773 0.000000 
					CHANNELS 3 Zrotation Yrotation Xrotation
					JOINT RightToeBase
					{
						OFFSET -0.008058 -0.022138 0.069332 
						CHANNELS 3 Zrotation Yrotation Xrotation
						End Site
						{
							OFFSET -0.000000 -0.000000 0.036391 
						}
					}
				}
			}
		}
	}
	JOINT LowerBack
	{
		OFFSET 0.000000 0.000000 0.000000 
		CHANNELS 3 Zrotation Yrotation Xrotation
		JOINT Spine
		{
			OFFSET -0.000011 0.066375 -0.007953 
			CHANNELS 3 Zrotation Yrotation Xrotation
			JOINT Spine1
			{
				OFFSET 0.001748 0.066993 -0.001037 
				CHANNELS 3 Zrotation Yrotation Xrotation
				JOINT Neck
				{
					OFFSET 0.000000 0.000000 0.000000 
					CHANNELS 3 Zrotation Yrotation Xrotation
					JOINT Neck1
					{
						OFFSET -0.003073 0.050852 0.007566 
						CHANNELS 3 Zrotation Yrotation Xrotation
						JOINT Head
						{
							OFFSET 0.003390 0.051888 -0.007078 
							CHANNELS 3 Zrotation Yrotation Xrotation
							End Site
							{
								OFFSET 0.001370 0.052583 -0.003294 
							}
						}
					}
				}
				JOINT LeftShoulder
				{
					OFFSET 0.000000 0.000000 0.000000 
					CHANNELS 3 Zrotation Yrotation Xrotation
					JOINT LeftArm
					{
						OFFSET 0.102846 0.024812 -0.021306 
						CHANNELS 3 Zrotation Yrotation Xrotation
						JOINT LeftForeArm
						{
							OFFSET 0.161034 -0.000000 -0.000000 
							CHANNELS 3 Zrotation Yrotation Xrotation
							JOINT LeftHand
							{
								OFFSET 0.117231 -0.000000 -0.000000 
								CHANNELS 3 Zrotation Yrotation Xrotation
								JOINT LeftFingerBase
								{
									OFFSET 0.000000 0.000000 0.000000 
									CHANNELS 3 Zrotation Yrotation Xrotation
									JOINT LeftHandIndex1
									{
										OFFSET 0.016537 -0.000000 0.000000 
										CHANNELS 3 Zrotation Yrotation Xrotation
										End Site
										{
											OFFSET 0.013332 -0.000000 0.000000 
										}
									}
								}
								JOINT LThumb
								{
									OFFSET 0.000000 0.000000 0.000000 
									CHANNELS 3 Zrotation Yrotation Xrotation
									End Site
									{
										OFFSET 0.013536 -0.000000 0.013536 
									}
								}
							}
						}
					}
				}
				JOINT RightShoulder
				{
					OFFSET 0.000000 0.000000 0.000000 
					CHANNELS 3 Zrotation Yrotation Xrotation
					JOINT RightArm
					{
						OFFSET -0.096067 0.033214 -0.013856 
						CHANNELS 3 Zrotation Yrotation Xrotation
						JOINT RightForeArm
						{
							OFFSET -0.165504 -0.000000 0.000000 
							CHANNELS 3 Zrotation Yrotation Xrotation
							JOINT RightHand
							{
								OFFSET -0.117545 -0.000000 -0.000000 
								CHANNELS 3 Zrotation Yrotation Xrotation
								JOINT RightFingerBase
								{
									OFFSET 0.000000 0.000000 0.000000 
									CHANNELS 3 Zrotation Yrotation Xrotation
									JOINT RightHandIndex1
									{
										OFFSET -0.023354 -0.000000 0.000000 
										CHANNELS 3 Zrotation Yrotation Xrotation
										End Site
										{
											OFFSET -0.018828 -0.000000 0.000000 
										}
									}
								}
								JOINT RThumb
								{
									OFFSET 0.000000 0.000000 0.000000 
									CHANNELS 3 Zrotation Yrotation Xrotation
									End Site
									{
										OFFSET -0.019116 -0.000000 0.019116 
									}
								}
							}
						}
					}
				}
			}
		}
	}
}
MOTION
Frames: 12
Frame Time: 0.008333
-0.306866 0.468709 -0.079094 -9.185400 33.527699 -10.472300 0.000000 0.000000 0.000000 -12.319500 -2.151600 -31.605000 19.623899 19.996599 88.900299 -2.392900 -26.835100 3.797400 0.039200 -1.278300 -3.515000 0.000000 0.000000 0.000000 4.694700 5.495300 -21.903601 -8.840600 -16.704000 55.537102 -1.182400 2.510400 -19.875401 -2.750300 10.279400 -29.886299 2.789200 0.485100 17.752701 7.452300 1.779200 4.442000 6.029000 0.936500 -5.337000 -6.268100 0.998700 -16.731001 -2.571400 3.686400 19.254400 0.616400 1.018500 8.755500 0.000000 -0.000000 0.000000 -84.885101 12.990300 22.627701 116.360397 -57.204300 -82.614502 -0.000000 0.000000 -24.380800 14.043900 10.508700 2.612100 -7.125000 0.000000 -0.000000 -11.449800 40.539600 1.278300 0.000000 -0.000000 0.000000 54.872299 -6.681600 45.049599 -125.319504 54.717201 -90.044998 0.000000 -0.000000 -7.534500 -9.295600 23.528700 -3.738500 7.125000 -0.000000 -0.000000 12.298900 -6.622100 11.062900 
-0.304744 0.468156 -0.072394 -9.466000 34.105900 -10.579300 0.000000 0.000000 0.000000 -12.762200 -1.559600 -33.258598 19.821699 19.999201 89.478699 -2.075900 -25.531700 1.993600 0.081700 -1.844200 -5.075200 0.000000 0.000000 0.000000 4.986700 4.686300 -21.176399 -8.958600 -16.781000 55.946800 -1.318300 2.665900 -20.993500 -3.070900 10.808900 -31.638100 3.001900 0.701900 18.109400 7.376600 2.143700 4.211900 5.743900 1.115000 -5.798000 -5.655600 1.115000 -16.119400 -2.563900 3.653100 19.482599 0.511700 1.050600 8.729700 -0.000000 -0.000000 0.000000 -85.109398 14.187700 22.159700 116.261497 -57.226501 -82.531303 -0.000000 0.000000 -24.433201 13.946200 10.111500 2.496400 -7.125000 0.000000 -0.000000 -11.449300 40.131599 1.395100 -0.000000 -0.000000 0.000000 54.994202 -5.125900 45.887798 -123.903603 55.176701 -88.885902 0.000000 -0.000000 -8.065500 -9.100600 23.106800 -3.597100 7.125000 -0.000000 -0.000000 12.411800 -7.056400 11.062500 
-0.302119 0.468691 -0.065913 -10.005200 34.566502 -10.859300 0.000000 0.000000 0.000000 -13.068300 -0.787600 -34.815498 19.933800 19.999901 89.806503 -1.706400 -24.028299 -0.368900 0.215700 -2.990100 -8.251200 0.000000 0.000000 0.000000 5.568500 4.075700 -20.368099 -8.995800 -16.805000 56.075699 -1.427500 3.136000 -21.782200 -3.000700 10.696100 -31.261801 3.572800 1.177800 18.349600 7.512800 2.909200 4.280800 5.383700 1.486200 -5.894300 -5.890900 0.821100 -16.379700 -2.299800 3.286700 19.735100 0.599500 0.879100 8.860600 0.000000 -0.000000 0.000000 -85.293098 14.679800 22.567801 116.237602 -57.231899 -82.511299 -0.000000 0.000000 -24.028700 13.836900 9.869500 2.417500 -7.125000 0.000000 -0.000000 -11.492600 39.879200 1.473100 0.000000 -0.000000 0.000000 55.049301 -3.915300 45.656101 -123.579300 55.278198 -88.619499 0.000000 -0.000000 -8.279400 -9.144200 23.302401 -3.643400 7.125000 -0.000000 -0.000000 12.388100 -6.859800 11.088700 
-0.299472 0.468775 -0.059581 -10.499100 35.133099 -11.103400 0.000000 0.000000 0.000000 -13.425000 -0.307900 -36.350601 20.044399 20.000000 90.129799 -1.344900 -22.325800 -2.312600 0.336400 -3.727200 -10.310400 0.000000 0.000000 0.000000 6.069000 3.289600 -19.595100 -9.013200 -16.816200 56.135601 -1.527000 3.254100 -22.535601 -3.062700 10.795900 -31.594500 4.023600 1.531800 18.479300 7.551300 3.477300 4.310800 5.030700 1.760000 -5.948600 -5.841600 0.626600 -16.405701 -2.139600 2.979400 19.853701 0.609500 0.753000 8.908300 0.000000 0.000000 0.000000 -85.264297 15.427700 22.743500 116.413200 -57.192299 -82.658897 -0.000000 0.000000 -23.267599 13.730700 9.440900 2.295200 -7.125000 0.000000 -0.000000 -11.495200 39.439701 1.599700 0.000000 0.000000 0.000000 55.374199 -2.899900 45.784500 -124.095001 55.116100 -89.042900 0.000000 -0.000000 -8.078100 -9.542100 23.509300 -3.836200 7.125000 -0.000000 -0.000000 12.146900 -6.615800 10.921100 
-0.296597 0.468881 -0.053434 -10.621800 35.790298 -11.016000 0.000000 0.000000 0.000000 -14.175600 -0.285000 -37.860100 20.115400 19.999701 90.337303 -1.028000 -20.569500 -3.797100 0.406100 -4.090900 -11.332500 0.000000 0.000000 0.000000 6.198900 2.457200 -18.803101 -8.992300 -16.802799 56.063400 -1.636700 3.086900 -23.395901 -3.181800 10.983600 -32.224701 4.342600 1.858900 18.619600 7.373400 3.976200 4.193600 4.530500 1.994700 -6.147500 -5.485500 0.567600 -16.133101 -2.152400 2.785800 19.777901 0.521300 0.694200 8.838700 -0.000000 0.000000 0.000000 -85.024597 16.330700 22.885401 116.642799 -57.140099 -82.851799 -0.000000 0.000000 -22.480200 13.522600 9.285800 2.222300 -7.125000 0.000000 -0.000000 -11.641100 39.267700 1.670800 -0.000000 0.000000 0.000000 55.893600 -1.964300 46.147400 -125.151497 54.773201 -89.907799 0.000000 -0.000000 -7.861300 -10.399500 23.062201 -4.112100 7.125000 -0.000000 -0.000000 11.608000 -6.966600 10.334200 
-0.293628 0.468931 -0.047272 -11.074300 36.328701 -11.170700 0.000000 0.000000 0.000000 -14.515700 -0.411900 -39.270699 20.186899 19.999201 90.546600 -0.758500 -19.126600 -5.392000 0.532400 -4.675600 -12.985600 0.000000 0.000000 0.000000 6.691600 1.797200 -17.790001 -8.920400 -16.756201 55.814499 -1.752800 2.887900 -24.284300 -3.286800 11.145500 -32.771999 4.895700 2.178500 18.820000 7.318800 4.525000 4.128100 4.018700 2.250700 -6.308200 -5.387100 0.465600 -16.091400 -2.070600 2.596100 19.710199 0.509500 0.624700 8.809900 0.000000 0.000000 0.000000 -84.815903 17.337799 23.027901 117.267097 -56.995300 -83.375801 -0.000000 0.000000 -21.904200 12.547200 9.152300 2.027400 -7.125000 0.000000 -0.000000 -12.442500 39.059502 1.854800 0.000000 0.000000 0.000000 56.339001 -0.851600 46.390099 -126.443398 54.333000 -90.960297 0.000000 -0.000000 -8.548000 -10.982900 22.553101 -4.256900 7.125000 -0.000000 -0.000000 11.233600 -7.407900 9.888400 
-0.290462 0.469391 -0.040884 -11.818400 36.888802 -11.560700 0.000000 0.000000 0.000000 -14.462000 -0.602000 -40.487400 20.233101 19.998699 90.681503 -0.575400 -18.119499 -6.534100 0.518900 -4.616600 -12.818200 0.000000 0.000000 0.000000 7.470400 0.939700 -16.497000 -8.723800 -16.626600 55.129799 -1.822100 2.114500 -24.953699 -3.665000 11.700800 -34.681400 5.401600 2.463800 18.828400 7.381800 5.007300 4.151100 3.685300 2.480400 -6.270700 -5.358600 0.344200 -16.083799 -1.772200 2.352500 19.696199 0.576500 0.545400 8.801700 0.000000 -0.000000 0.000000 -84.620003 18.343399 23.240499 118.096802 -56.796101 -84.070801 -0.000000 0.000000 -21.900200 11.057800 9.003900 1.751800 -7.125000 0.000000 -0.000000 -13.669700 38.800400 2.134800 0.000000 -0.000000 0.000000 56.910099 0.136500 46.765499 -127.809700 53.841599 -92.066902 0.000000 -0.000000 -9.675500 -11.592400 22.749599 -4.535500 7.125000 -0.000000 -0.000000 10.859300 -7.146800 9.602400 
-0.287453 0.470784 -0.034053 -13.799500 37.172600 -13.212100 0.000000 0.000000 0.000000 -13.026100 -0.231300 -41.217602 20.226200 19.998800 90.661499 -0.459900 -17.675400 -7.500800 0.544100 -4.726000 -13.128700 0.000000 0.000000 0.000000 9.572500 0.451200 -14.437900 -8.392500 -16.400499 53.964500 -1.797700 1.393200 -24.966400 -3.899000 12.024800 -35.819801 6.503800 2.722400 19.310301 7.814200 5.655000 4.293900 3.365700 2.787300 -6.336100 -5.231900 0.138500 -16.185101 -1.552900 2.001300 19.860001 0.589000 0.409100 8.879300 0.000000 -0.000000 0.000000 -84.479202 19.404301 23.614799 118.917702 -56.591499 -84.756897 -0.000000 0.000000 -21.905100 10.839300 9.002200 1.716100 -7.125000 0.000000 -0.000000 -13.853500 38.782501 2.171100 0.000000 -0.000000 0.000000 57.590801 0.885300 47.371601 -129.307602 53.271000 -93.271896 0.000000 -0.000000 -10.862400 -12.035800 22.428499 -4.650600 7.125000 -0.000000 -0.000000 10.573200 -7.416600 9.283500 
-0.284944 0.472194 -0.026563 -18.516399 36.460300 -17.562901 0.000000 0.000000 0.000000 -8.430200 1.326600 -41.294998 20.278999 19.998100 90.815804 -0.464500 -18.415800 -8.236600 0.603900 -4.974300 -13.835300 0.000000 0.000000 0.000000 14.674800 0.488000 -10.882800 -7.932500 -16.069401 52.319302 -1.703700 0.704100 -24.486700 -3.762000 11.836800 -35.157001 9.669000 2.766800 21.018400 8.896500 6.709100 4.589500 2.464800 3.258400 -6.723900 -5.040400 -0.066800 -16.356501 -1.492300 1.673100 20.004000 0.539300 0.272100 8.965900 0.000000 0.000000 0.000000 -84.207298 20.493601 24.026300 119.523804 -56.435501 -85.262299 -0.000000 0.000000 -21.771700 11.023700 8.934800 1.733000 -7.125000 0.000000 -0.000000 -13.683400 38.729599 2.161400 0.000000 0.000000 0.000000 58.367599 1.557500 47.880100 -130.554092 52.769600 -94.267700 0.000000 -0.000000 -11.533800 -11.983700 22.591400 -4.661600 7.125000 -0.000000 -0.000000 10.610700 -7.260400 9.350600 
-0.281625 0.473684 -0.019413 -21.507500 36.101002 -20.347799 0.000000 0.000000 0.000000 -5.657400 2.361700 -41.532001 20.173800 19.999300 90.508301 -0.471200 -18.937099 -8.704000 0.559800 -4.792400 -13.317300 0.000000 0.000000 0.000000 17.936100 -0.193900 -7.940800 -7.471900 -15.716700 50.637402 -1.611500 -0.018900 -24.033899 -3.835600 11.938400 -35.514500 11.574000 2.904500 22.040001 9.591300 7.564400 4.743100 1.924200 3.645700 -6.941600 -4.893200 -0.259900 -16.392500 -1.494500 1.373500 20.028700 0.477600 0.142800 8.986700 -0.000000 -0.000000 0.000000 -84.300400 21.423800 24.190300 119.757301 -56.374298 -85.456902 -0.000000 0.000000 -21.587200 10.894900 8.884700 1.702800 -7.125000 0.000000 -0.000000 -13.780900 38.670700 2.197900 -0.000000 -0.000000 0.000000 59.215900 2.279000 47.962299 -131.071899 52.553902 -94.679398 0.000000 -0.000000 -10.671400 -11.238400 24.289400 -4.672700 7.125000 -0.000000 -0.000000 11.127700 -5.660100 10.174200 
-0.277384 0.475778 -0.012647 -22.470501 36.716599 -21.046801 0.000000 0.000000 0.000000 -5.405300 2.279000 -42.146801 19.868200 19.999599 89.614700 -0.388600 -18.592600 -9.267700 0.484100 -4.461600 -12.378900 0.000000 0.000000 0.000000 18.772499 -1.284000 -6.195700 -7.043400 -15.368300 49.038200 -1.526100 -0.369200 -23.505199 -3.984600 12.139900 -36.228699 11.916700 3.153700 21.908199 9.623000 7.965200 4.670200 1.678700 3.836300 -6.898400 -4.781000 -0.463400 -16.486700 -1.116200 0.987400 20.199600 0.540900 0.008200 9.065000 0.000000 -0.000000 0.000000 -84.272202 22.397200 24.273800 120.025803 -56.303101 -85.680397 -0.000000 0.000000 -21.645901 11.864000 9.136600 1.910600 -7.125000 0.000000 -0.000000 -13.017900 38.992298 1.966000 0.000000 -0.000000 0.000000 60.313202 2.904900 48.542400 -132.046005 52.136200 -95.450600 0.000000 -0.000000 -10.250200 -11.019500 23.757999 -4.485800 7.125000 -0.000000 -0.000000 11.244300 -6.211000 10.164300 
-0.272450 0.478491 -0.006206 -22.231199 37.989300 -20.390499 0.000000 0.000000 0.000000 -6.676500 1.448500 -42.975498 19.375200 19.990601 88.172997 -0.154200 -17.336000 -10.648100 0.569400 -4.832700 -13.431900 0.000000 0.000000 0.000000 18.197201 -2.223900 -5.297200 -6.670200 -15.047800 47.615799 -1.455200 0.606600 -22.632000 -3.629500 11.650400 -34.506100 11.428800 3.404500 21.124701 9.144700 8.023600 4.385500 1.445300 3.864700 -6.786800 -4.638200 -0.554800 -16.564699 -0.473400 0.678200 20.278200 0.699000 -0.057000 9.105600 -0.000000 0.000000 0.000000 -83.878098 23.496000 24.139500 120.393600 -56.204102 -85.986198 -0.000000 0.000000 -21.962200 13.204200 9.095200 2.124000 -7.125000 0.000000 -0.000000 -11.873100 39.052101 1.769200 -0.000000 0.000000 0.000000 61.565899 3.520700 49.490002 -132.926193 51.744900 -96.143600 0.000000 -0.000000 -10.655700 -11.037200 23.474400 -4.442800 7.125000 -0.000000 -0.000000 11.224800 -6.489800 10.084500 
